<?xml version="1.0" encoding="UTF-8"?>
<!DOCTYPE svg PUBLIC "-//W3C//DTD SVG 1.1//EN" "http://www.w3.org/Graphics/SVG/1.1/DTD/svg11.dtd">
<!-- Creator: CorelDRAW -->
<svg xmlns="http://www.w3.org/2000/svg" xml:space="preserve" width="15.3449mm" height="19.7551mm" version="1.1" style="shape-rendering:geometricPrecision; text-rendering:geometricPrecision; image-rendering:optimizeQuality; fill-rule:evenodd; clip-rule:evenodd"
viewBox="0 0 8.94 11.51"
 xmlns:xlink="http://www.w3.org/1999/xlink"
 xmlns:xodm="http://www.corel.com/coreldraw/odm/2003">
 <defs>
  <style type="text/css">
   <![CDATA[
    .fil0 {fill:black}
    .fil1 {fill:white}
   ]]>
  </style>
 </defs>
 <g id="Слой_x0020_1">
  <metadata id="CorelCorpID_0Corel-Layer"/>
  <rect class="fil0" x="-0" y="-0" width="8.94" height="11.51" rx="0.58" ry="0.58"/>
  <g id="_2417235484832">
   <g>
    <rect class="fil1" x="0.88" y="0.96" width="1.29" height="0.98"/>
    <rect class="fil1" x="2.85" y="0.96" width="1.29" height="0.98"/>
    <rect class="fil1" x="4.81" y="0.96" width="1.29" height="0.98"/>
    <rect class="fil1" x="6.78" y="0.96" width="1.29" height="0.98"/>
   </g>
   <g>
    <rect class="fil1" x="0.88" y="2.49" width="1.29" height="0.98"/>
    <rect class="fil1" x="2.85" y="2.49" width="1.29" height="0.98"/>
    <rect class="fil1" x="4.81" y="2.49" width="1.29" height="0.98"/>
    <rect class="fil1" x="6.78" y="2.49" width="1.29" height="0.98"/>
   </g>
   <g>
    <rect class="fil1" x="0.88" y="4.01" width="1.29" height="0.98"/>
    <rect class="fil1" x="2.85" y="4.01" width="1.29" height="0.98"/>
    <rect class="fil1" x="4.81" y="4.01" width="1.29" height="0.98"/>
    <rect class="fil1" x="6.78" y="4.01" width="1.29" height="0.98"/>
   </g>
   <g>
    <rect class="fil1" x="0.88" y="5.54" width="1.29" height="0.98"/>
    <rect class="fil1" x="2.85" y="5.54" width="1.29" height="0.98"/>
    <rect class="fil1" x="4.81" y="5.54" width="1.29" height="0.98"/>
    <rect class="fil1" x="6.78" y="5.54" width="1.29" height="0.98"/>
   </g>
   <rect class="fil1" x="0.88" y="7.07" width="1.29" height="0.98"/>
   <rect class="fil1" x="2.85" y="7.07" width="1.29" height="0.98"/>
   <rect class="fil1" x="4.81" y="7.07" width="1.29" height="0.98"/>
   <rect class="fil1" x="6.78" y="7.07" width="1.29" height="0.98"/>
   <rect class="fil1" x="0.88" y="8.51" width="1.29" height="0.98"/>
   <rect class="fil1" x="6.78" y="8.51" width="1.29" height="0.98"/>
   <rect class="fil1" x="3.17" y="8.57" width="2.61" height="1.98"/>
  </g>
 </g>
</svg>
