<?xml version="1.0" encoding="UTF-8"?>
<!DOCTYPE svg PUBLIC "-//W3C//DTD SVG 1.1//EN" "http://www.w3.org/Graphics/SVG/1.1/DTD/svg11.dtd">
<!-- Creator: CorelDRAW -->
<svg xmlns="http://www.w3.org/2000/svg" xml:space="preserve" width="50mm" height="51.8264mm" version="1.1" style="shape-rendering:geometricPrecision; text-rendering:geometricPrecision; image-rendering:optimizeQuality; fill-rule:evenodd; clip-rule:evenodd"
viewBox="0 0 191.27 198.26"
 xmlns:xlink="http://www.w3.org/1999/xlink"
 xmlns:xodm="http://www.corel.com/coreldraw/odm/2003">
 <defs>
  <style type="text/css">
   <![CDATA[
    .fil0 {fill:black}
   ]]>
  </style>
 </defs>
 <g id="Слой_x0020_1">
  <metadata id="CorelCorpID_0Corel-Layer"/>
  <path class="fil0" d="M14.05 70.69l163.25 0.01c0,32.53 0,65.06 0,97.59 0,1.63 0.29,4.48 -0.32,5.78 -2.49,5.28 -3.46,6.69 -8.88,9.44 -2.03,1.03 -2.59,0.8 -5.24,0.8l-133.78 -0.21c-1.76,0 -4.39,0.33 -5.8,-0.44 -5.68,-3.07 -6.41,-4.43 -8.87,-9.46 -0.73,-1.48 -0.4,-4.12 -0.4,-5.92l0 -73.03c0,-7.97 -0.34,-16.7 0.03,-24.58zm22.18 127.56l118.86 0c1.6,-0.66 11.45,0.01 14.73,-0.74 10.47,-2.39 20.98,-13.34 21.13,-25.48 0.51,-40.9 0.28,-83 0.2,-124 -0.01,-4.44 0.07,-10.42 -1.18,-14.21 -3.67,-11.07 -13.48,-18.76 -26.85,-19.85 -0.19,3.4 0.01,7.11 -0.04,10.56 -0.05,3.91 0.35,6.36 -1.19,9.45 -2.13,4.3 -6.29,8.54 -12.98,8.29 -7.12,-0.26 -10.65,-3.5 -13.09,-8.2 -1.65,-3.19 -1,-15.42 -1.18,-20.03 -0.91,-0.24 -20.28,-0.24 -21.19,0 -0.48,5.99 1.16,15.07 -1.27,19.94 -5.81,11.65 -20.9,10.68 -26.07,0.1 -1.48,-3.02 -1.1,-15.6 -1.19,-20.04 -1.65,-0.44 -18.32,-0.21 -21.12,-0.09 -0.29,4.5 0.38,16.65 -1.11,19.86 -1.2,2.58 -2.93,4.46 -4.77,5.85 -2.52,1.91 -4.34,2.43 -8.25,2.46 -3.96,0.03 -5.87,-0.31 -8.38,-2.32 -2.15,-1.73 -3.39,-2.93 -4.86,-5.75 -1.7,-3.27 -0.91,-15.26 -1.19,-20.03 -3.03,-0.49 -11.73,0.43 -14.47,1.18 -7.27,2 -14.11,7.74 -17.62,14.43 -2.53,4.83 -2.65,6.97 -2.86,13.1 -0.36,10.47 -0.15,21.25 -0.16,31.76 -0.03,31.42 -0.39,64.62 0.24,95.7 0.12,5.93 0.5,7.98 2.94,12.87 3.39,6.8 10.51,12.19 17.71,14.34 3.63,1.08 13.37,0.12 15.21,0.88z"/>
  <path class="fil0" d="M104.67 113.74c-7.79,1.62 -5.49,15.61 -3.94,17.85 1.91,2.77 4.9,2.77 9.28,2.77 6.21,-0 12.65,1.18 15.85,-2.44 2.23,-2.53 2.03,-13.23 0.22,-15.68 -2.21,-2.98 -5.94,-2.69 -9.41,-2.73 -2.89,-0.04 -9.5,-0.28 -12,0.23z"/>
  <path class="fil0" d="M69.31 113.74c-3,0.53 -5.16,3.33 -5.41,6.73 -0.24,3.25 -0.32,8.59 1.23,10.95 1.98,3 4.93,2.95 9.31,2.95 8.91,-0 16.8,1.87 17.35,-6.91 0.74,-11.97 -0.76,-13.75 -10.48,-13.93 -3.24,-0.06 -9.02,-0.3 -12,0.22z"/>
  <path class="fil0" d="M140.11 113.8c-3.49,0.74 -4.98,3.78 -5.22,7 -0.35,4.68 -0.64,11.87 4.8,13.23 2.46,0.62 15.94,0.44 17.93,0.1 1.38,-0.23 3.2,-1.47 3.79,-2.23 2.17,-2.78 1.99,-13.41 0.18,-15.61 -2.4,-2.91 -4.92,-2.7 -9.55,-2.78 -3.08,-0.05 -9.2,-0.3 -11.92,0.28z"/>
  <path class="fil0" d="M99.32 93.81c0,4.56 -0.36,8.68 3.2,11.03 2.44,1.61 7.3,1.14 10.62,1.14 3.09,-0.01 8.62,0.39 10.82,-0.93 3.77,-2.26 3.41,-5.22 3.41,-10.2 0,-4.29 -0.18,-6.71 -3.01,-8.52 -2.7,-1.73 -9.07,-1.25 -13.1,-1.25 -5.65,0 -11.94,-0.51 -11.94,8.73z"/>
  <path class="fil0" d="M28.27 123.36c0,11.71 4.09,11 13.5,11 3.2,0 8.92,0.54 11.29,-0.96 3.2,-2.03 3.31,-4.29 3.31,-9 0,-4.39 0.19,-7.32 -2.66,-9.44 -2.52,-1.87 -7.27,-1.47 -10.89,-1.47 -3.01,0 -8.97,-0.43 -11.09,1.07 -2.75,1.95 -3.45,4.31 -3.45,8.8z"/>
  <path class="fil0" d="M76.93 162.77c3.9,0 9.43,0.52 12.12,-1.29 2.79,-1.87 2.81,-4.84 2.81,-8.99 0,-1.85 0.02,-4.1 -0.38,-5.82 -1.4,-6.03 -10.06,-4.81 -16,-4.81 -4.17,0 -6.99,-0.29 -9.25,2 -2.53,2.55 -2.5,4.51 -2.39,9.05 0.25,10.22 3.87,9.86 13.1,9.86z"/>
  <path class="fil0" d="M63.81 94.85c0,11.35 3.19,11.11 12.71,11.11 3.12,0 9.37,0.49 11.76,-0.81 3.3,-1.78 3.53,-4.24 3.57,-8.85 0.11,-10.81 -1.9,-11.23 -13.67,-11.23 -4.01,0 -9.35,-0.54 -11.66,1.65 -2.41,2.28 -2.71,3.76 -2.71,8.12z"/>
  <path class="fil0" d="M99.32 150.2c0,4.41 -0.46,8.74 2.97,11.26 2.53,1.86 8.36,1.31 12.3,1.31 11.14,0 12.78,-0.66 12.78,-11.11 0,-9.55 -3.26,-9.79 -12.57,-9.79 -3.02,0 -9.85,-0.3 -11.81,0.9 -2.2,1.35 -3.68,3.65 -3.68,7.43z"/>
  <path class="fil0" d="M28.27 151.65c0,12.28 4.43,11.11 15.15,11.11 1.94,0 3.91,-0.05 5.85,-0.08 2.24,-0.04 2.98,-0.31 4.46,-1.36 2.75,-1.93 2.64,-4.96 2.62,-9.26 -0.03,-6.46 -0.66,-9.71 -7.48,-10.07l-9.6 -0.14c-4.37,0.01 -8.94,-0.13 -10.56,5.07 -0.34,1.1 -0.45,3.44 -0.45,4.72z"/>
  <path class="fil0" d="M162.86 97.35c0,-12.42 -1.69,-12.26 -14.77,-12.27 -8.12,-0 -13.38,-0.76 -13.3,10.19 0.08,11.25 3.8,10.63 12.89,10.72 8.89,0.09 15.19,1.27 15.19,-8.64z"/>
  <path class="fil0" d="M48.4 0.1c-3.09,0.59 -5.39,3.03 -5.71,6.37 -0.39,4 -0.34,20.17 0.4,23.82 0.7,3.47 4.45,5.09 7.56,4.55 1.76,-0.31 2.92,-1.09 3.92,-2.1 1.23,-1.24 1.52,-2.16 1.67,-4.31 0.23,-3.47 0.41,-21.34 -0.27,-23.93 -0.67,-2.55 -4.13,-5.05 -7.56,-4.4z"/>
  <path class="fil0" d="M97.98 0.14c-3.22,0.6 -5.35,3.14 -5.6,6.49 -0.31,4.13 -0.37,20.12 0.39,23.71 1.38,6.47 12.62,6.41 13.17,-1.88 0.22,-3.34 0.36,-21.75 -0.32,-24.09 -0.72,-2.46 -4.25,-4.85 -7.64,-4.22z"/>
  <path class="fil0" d="M147.57 0.17c-3.03,0.57 -5.28,3.09 -5.51,6.67 -0.27,4.23 -0.38,20.07 0.47,23.66 0.45,1.91 1.18,2.55 2.64,3.41 1.49,0.88 3.06,1.33 5.08,0.89 3.71,-0.8 5.16,-3.07 5.39,-6.72 0.21,-3.38 0.46,-21.54 -0.38,-23.82 -0.92,-2.48 -4.14,-4.76 -7.69,-4.09z"/>
 </g>
</svg>
