<?xml version="1.0" encoding="UTF-8"?>
<!DOCTYPE svg PUBLIC "-//W3C//DTD SVG 1.1//EN" "http://www.w3.org/Graphics/SVG/1.1/DTD/svg11.dtd">
<!-- Creator: CorelDRAW -->
<svg xmlns="http://www.w3.org/2000/svg" xml:space="preserve" width="154.006mm" height="214.905mm" version="1.1" style="shape-rendering:geometricPrecision; text-rendering:geometricPrecision; image-rendering:optimizeQuality; fill-rule:evenodd; clip-rule:evenodd"
viewBox="0 0 636.85 888.68"
 xmlns:xlink="http://www.w3.org/1999/xlink"
 xmlns:xodm="http://www.corel.com/coreldraw/odm/2003">
 <defs>
  <style type="text/css">
   <![CDATA[
    .fil0 {fill:black}
   ]]>
  </style>
 </defs>
 <g id="Слой_x0020_1">
  <metadata id="CorelCorpID_0Corel-Layer"/>
  <g id="_2417171016256">
   <path class="fil0" d="M340.39 615.21c2.38,54.49 0.27,141.87 0.14,202.1 -0.05,26.79 3.21,36.17 16.33,51.46 25.49,29.69 69.46,23.94 92.16,-3.45 12.77,-15.41 13.63,-28.66 13.62,-53.84l0 -372c-0,-12.25 -2.54,-21.17 4.6,-28.6 26.09,-27.14 157.57,-156.67 164.28,-172.7 17.01,-40.61 -8.65,-75.99 -49.68,-73.32 -21.6,1.41 -32.21,15.26 -42.94,25.91l-100.75 100.59c-8.43,8.43 -12.07,14.65 -19.56,15.12 -10.07,0.64 -23.21,-0.1 -33.64,-0.1l-70.3 0 0 308.35 25.71 0.49z"/>
   <path class="fil0" d="M314.67 287.6c46.1,2.51 94.32,-17.13 128.01,-66.09 24.86,-36.12 30.33,-89.63 12.26,-132.11 -1.97,-4.63 -6.47,-11.35 -8.05,-17.67 34.39,3.53 34.8,43.02 82.65,50.66 29.18,4.66 57.38,-3.31 77.84,-20.59 5.76,-4.86 14.27,-11.44 16.05,-18.72 -63.5,8.8 -49.96,-18.76 -86.71,-40.36 -14.97,-8.8 -34.71,-11.12 -56.71,-8.25 -27.18,3.55 -36.88,16.8 -45.46,19.31 -16.33,-13.4 -17.83,-21.7 -44.7,-36.3 -23.61,-12.82 -49.75,-18.06 -75.19,-16.78l0 286.89z"/>
  </g>
  <g id="_2417171030416">
   <path class="fil0" d="M315.35 306.37l-95.77 -0.02c-6.33,-0.82 -13.92,-10.55 -18.34,-14.95l-101.45 -101.34c-10.33,-10.21 -20.62,-23.89 -42.18,-25.19 -44.57,-2.69 -68.77,40.54 -52.56,74.77 5.7,12.04 22.53,26.7 31.17,35.89 41.36,43.99 90.16,91.74 133.46,136.41 4.92,5.07 3.96,5.23 3.89,14.38l-0.07 388.09c-0,24.69 0.93,37.2 14.29,52.14 25.16,28.13 64.45,30.26 91.43,1.8 14.03,-14.79 15.95,-26.91 15.93,-52.48 -0.03,-59.81 -2.36,-147.76 0.19,-201.45l20 0.27 0 -308.31z"/>
   <path class="fil0" d="M179.03 159.39c5,66.5 63.06,123.92 136.33,127.87l0 -287.26c-74.25,4.28 -143.34,66.13 -136.33,159.39z"/>
  </g>
 </g>
</svg>
