<?xml version="1.0" encoding="UTF-8"?>
<!DOCTYPE svg PUBLIC "-//W3C//DTD SVG 1.1//EN" "http://www.w3.org/Graphics/SVG/1.1/DTD/svg11.dtd">
<!-- Creator: CorelDRAW -->
<svg xmlns="http://www.w3.org/2000/svg" xml:space="preserve" width="119.596mm" height="283.349mm" version="1.1" style="shape-rendering:geometricPrecision; text-rendering:geometricPrecision; image-rendering:optimizeQuality; fill-rule:evenodd; clip-rule:evenodd"
viewBox="0 0 264.82 627.41"
 xmlns:xlink="http://www.w3.org/1999/xlink"
 xmlns:xodm="http://www.corel.com/coreldraw/odm/2003">
 <defs>
  <style type="text/css">
   <![CDATA[
    .fil0 {fill:black}
   ]]>
  </style>
 </defs>
 <g id="Слой_x0020_1">
  <metadata id="CorelCorpID_0Corel-Layer"/>
  <path class="fil0" d="M120.9 613.02c5.91,-9.02 5.36,-19.53 5.36,-31.84l0.01 -225.24 12.33 -0.02 0.02 225.26c0,12.3 -0.82,22.86 5.33,31.84 11.21,16.39 36.25,19.58 50.35,5.43 4.28,-4.29 8.66,-10.91 9.48,-19.31 1.6,-16.38 0.29,-39.89 0.28,-57.02l-0.02 -285.9c-0.07,-18.57 -0.81,-39.36 0.12,-57.69 7.32,8.74 13.63,44.29 15.33,59.24 2.7,23.71 3.58,47.63 3.04,71.87 -0.54,24.45 -7.7,51.79 15.1,56.9 12.19,2.73 21.2,-4.8 24.27,-12.91 2.7,-7.13 2.48,-25.98 2.64,-34.58 1.14,-60.98 0.36,-139.13 -39.23,-185.52 -11.75,-13.76 -35.93,-23.97 -54.55,-19.49l-5.2 40.91c-0.3,2.17 -0.41,3.93 -1.71,5.65 -3.84,-6.05 -21.82,-25.76 -24.78,-30.62 1.91,-3.79 11.67,-12.36 13.86,-16.23l-41.02 -0.11c1.88,3.3 12.59,13.72 13.9,16.34 -2.41,4.15 -19.95,23.46 -24.8,30.62l-6.89 -46.62c-19.92,-3.93 -42.3,5.4 -54.51,19.65 -40.08,46.79 -40.56,124.68 -39.28,186.17 0.18,8.71 0.08,27.47 2.85,34.33 8.18,20.23 39.91,15.74 40.42,-7.77 0.24,-11.25 -0.92,-24.39 -1.21,-35.94 -0.61,-24.23 0.25,-48.19 2.91,-71.9 1.61,-14.32 8.25,-52.33 15.43,-60.08 0.81,18.3 0.21,38.51 0.12,56.99l-0.02 285.12c-0.06,18.2 -0.89,39.15 0.15,57.05 1.83,31.43 43.88,39.87 59.92,15.41z"/>
  <path class="fil0" d="M143.14 0l-21.46 0c-4.01,2.01 -10.67,1.99 -19.99,7.94 -53,33.8 -27.14,110.25 30.34,110.46 59.52,0.21 83.12,-77.19 31.64,-110.19 -10.07,-6.45 -15.9,-5.93 -20.52,-8.2z"/>
 </g>
</svg>
