<?xml version="1.0" encoding="UTF-8"?>
<!DOCTYPE svg PUBLIC "-//W3C//DTD SVG 1.1//EN" "http://www.w3.org/Graphics/SVG/1.1/DTD/svg11.dtd">
<!-- Creator: CorelDRAW -->
<svg xmlns="http://www.w3.org/2000/svg" xml:space="preserve" width="131.996mm" height="269.832mm" version="1.1" style="shape-rendering:geometricPrecision; text-rendering:geometricPrecision; image-rendering:optimizeQuality; fill-rule:evenodd; clip-rule:evenodd"
viewBox="0 0 1095.93 2240.36"
 xmlns:xlink="http://www.w3.org/1999/xlink"
 xmlns:xodm="http://www.corel.com/coreldraw/odm/2003">
 <defs>
  <style type="text/css">
   <![CDATA[
    .fil0 {fill:black}
   ]]>
  </style>
 </defs>
 <g id="Слой_x0020_1">
  <metadata id="CorelCorpID_0Corel-Layer"/>
  <g id="_2417235474656">
   <path class="fil0" d="M290.99 915.83c2.93,100.37 0.01,204.19 0.26,304.99 0.25,101.52 -0.49,203.12 0.06,304.62 0.55,101.47 0.03,203.13 0.03,304.62 -0,65.95 -3.24,253.38 0.54,304.71 9.74,132.09 221.97,157.28 222.77,-23.52l-0.12 -685.49c-0.25,-65.59 66.32,-60.86 66.99,-5.91 2.75,224.47 -1.21,459.6 -0.17,685.55 0.86,188.33 214.34,160.81 222.89,32.3 3.72,-55.85 0.5,-235.6 0.45,-304.7 -0.07,-101.52 -0.24,-203.11 0.02,-304.62 0.52,-202.41 -5.3,-411.03 0.3,-612.55 7.32,8.43 84.75,222.93 98.3,261.69 11.83,33.86 24.03,56.28 48.8,71.21 64.85,39.08 136.46,-5.95 143.52,-69.89 4.44,-40.18 -40.7,-142.6 -56.1,-184.45 -21.69,-58.93 -42.26,-116.04 -64.37,-175.85 -19.02,-51.46 -42.87,-129.22 -68.99,-171.22 -27.76,-44.64 -72.85,-87.36 -131.62,-108.43 -70.56,-25.3 -145.69,-18.13 -225.08,-18.1 -135.82,0.05 -269.52,-16.34 -357.13,123.21 -33.08,52.7 -105.72,272.77 -134.79,348.52 -13.39,34.9 -59.42,148.6 -57.5,181.07 4.56,77 90.05,107.47 142.3,76.49 28.38,-16.82 36.64,-33.32 49.6,-70.39 14.14,-40.43 91.24,-254.82 99.03,-263.85z"/>
   <path class="fil0" d="M526.42 1.25c-120.76,12.6 -221.99,118.19 -207.71,255.83 12.59,121.33 117.66,220.35 254.09,207.61 118.76,-11.09 219.03,-121.21 204.4,-257.25 -12.59,-116.99 -117.95,-220.05 -250.78,-206.2z"/>
  </g>
 </g>
</svg>
