<?xml version="1.0" encoding="UTF-8"?>
<!DOCTYPE svg PUBLIC "-//W3C//DTD SVG 1.1//EN" "http://www.w3.org/Graphics/SVG/1.1/DTD/svg11.dtd">
<!-- Creator: CorelDRAW -->
<svg xmlns="http://www.w3.org/2000/svg" xml:space="preserve" width="20.2937mm" height="15.8413mm" version="1.1" style="shape-rendering:geometricPrecision; text-rendering:geometricPrecision; image-rendering:optimizeQuality; fill-rule:evenodd; clip-rule:evenodd"
viewBox="0 0 29.25 22.83"
 xmlns:xlink="http://www.w3.org/1999/xlink"
 xmlns:xodm="http://www.corel.com/coreldraw/odm/2003">
 <defs>
  <style type="text/css">
   <![CDATA[
    .str0 {stroke:#2B2A29;stroke-width:0.29;stroke-miterlimit:22.9256}
    .fil1 {fill:black}
    .fil0 {fill:white}
   ]]>
  </style>
 </defs>
 <g id="Слой_x0020_1">
  <metadata id="CorelCorpID_0Corel-Layer"/>
  <path class="fil0" d="M12.61 8.91l-12.44 -7.64c-0.02,0.1 -0.03,0.21 -0.03,0.31l0 2.97 12.47 7.67c1.59,0.98 3.19,0.95 4.8,0l11.69 -6.89 0 -3.32 -11.69 6.89c-1.61,0.95 -3.21,0.98 -4.8,0z"/>
  <path class="fil1 str0" d="M0.18 1.27l12.44 7.64c1.59,0.98 3.19,0.95 4.8,0l11.69 -6.89 0 -0.43c0,-0.79 -0.65,-1.44 -1.44,-1.44l-26.08 0c-0.69,0 -1.26,0.49 -1.41,1.13z"/>
  <path class="fil1 str0" d="M12.61 12.23l-12.47 -7.67 0 16.69c0,0.79 0.65,1.44 1.44,1.44l26.08 0c0.79,0 1.44,-0.65 1.44,-1.44l0 -15.9 -11.69 6.89c-1.61,0.95 -3.21,0.98 -4.8,0z"/>
 </g>
</svg>
