<?xml version="1.0" encoding="UTF-8"?>
<!DOCTYPE svg PUBLIC "-//W3C//DTD SVG 1.1//EN" "http://www.w3.org/Graphics/SVG/1.1/DTD/svg11.dtd">
<!-- Creator: CorelDRAW -->
<svg xmlns="http://www.w3.org/2000/svg" xml:space="preserve" width="208.303mm" height="208.224mm" version="1.1" style="shape-rendering:geometricPrecision; text-rendering:geometricPrecision; image-rendering:optimizeQuality; fill-rule:evenodd; clip-rule:evenodd"
viewBox="0 0 2462.06 2461.13"
 xmlns:xlink="http://www.w3.org/1999/xlink"
 xmlns:xodm="http://www.corel.com/coreldraw/odm/2003">
 <defs>
  <style type="text/css">
   <![CDATA[
    .fil0 {fill:black}
   ]]>
  </style>
 </defs>
 <g id="Слой_x0020_1">
  <metadata id="CorelCorpID_0Corel-Layer"/>
  <g id="_2417458195888">
   <path class="fil0" d="M1699.21 589.4c-265.78,-236.49 -566.49,-401.51 -859.04,-487.69 -224.26,-66.06 -423.37,-99.03 -645.71,-101.41 -32.48,-0.35 -66.86,-3.46 -105.64,21.93 -109.8,71.89 -70.72,252.48 85.02,253.49 19.79,0.13 30.32,0.45 53.05,-0.5l162.18 12.32c471.02,47.9 948.82,284.67 1288.34,668.62 279.93,316.56 444.4,700.7 491.19,1073.88 11.27,89.9 12.11,129.38 16.74,215.24 1.74,32.17 -2.98,69.68 12.12,106.16 16.83,40.68 57.32,71.88 96.25,80.2 77.64,16.6 160.11,-34.68 168.35,-127.41l-9.5 -212.22c-48.98,-558.86 -313.87,-1111.54 -753.35,-1502.59z"/>
   <path class="fil0" d="M67.57 871.43c44.88,44.7 94.3,39.72 132.82,41.07 11.47,0.4 20.49,-0.67 32.34,-0.24 335.99,12.39 670.75,164.67 922.51,416.42 186.79,186.79 300.05,421.7 353.07,630.64 28.28,111.42 39.9,218.21 41.89,315.46 1.01,49.76 3.1,108.73 77.19,146.31 46.69,23.68 114.83,18.7 160.61,-30.13 21.88,-23.34 33.4,-54.31 36.48,-77.9 5.95,-45.52 -8.49,-191.36 -14.36,-238.79 -43.19,-348.67 -212.44,-691.72 -478.27,-957.55 -267.08,-267.08 -653.96,-444.49 -1001.78,-471.74 -32.11,-2.52 -57.43,-6.1 -91.38,-6.22 -50.57,-0.19 -126.3,-20.91 -182.56,49.92 -42.65,53.7 -40.78,130.73 11.43,182.74z"/>
   <path class="fil0" d="M839.62 1513.94c-136.44,-113.46 -267.25,-178.74 -412.28,-216.67 -73.12,-19.13 -241.12,-47.95 -306.58,-22.17 -122.79,48.37 -112.06,235.7 23.56,262.06 55.7,10.83 93.04,-3.13 206.38,24.53 316.74,77.29 537.28,343.89 568.19,665.93 5.45,56.77 -12.09,148.41 89.3,189.72 62.34,25.4 161.59,-1.78 183.42,-92.42 11.53,-47.89 -0.25,-148.35 -9.16,-203.45 -36.09,-223.17 -158.15,-453.96 -342.83,-607.53z"/>
   <path class="fil0" d="M425.61 1964.05c-112.66,-75.95 -283.85,-67.84 -378.93,72.15 -75.03,110.47 -65.32,282.25 70.95,376.78 110.58,76.71 285.07,67.77 379.81,-70.56 75.55,-110.3 66.69,-284.97 -71.84,-378.37z"/>
  </g>
 </g>
</svg>
