<?xml version="1.0" encoding="UTF-8"?>
<!DOCTYPE svg PUBLIC "-//W3C//DTD SVG 1.1//EN" "http://www.w3.org/Graphics/SVG/1.1/DTD/svg11.dtd">
<!-- Creator: CorelDRAW -->
<svg xmlns="http://www.w3.org/2000/svg" xml:space="preserve" width="279.649mm" height="279.688mm" version="1.1" style="shape-rendering:geometricPrecision; text-rendering:geometricPrecision; image-rendering:optimizeQuality; fill-rule:evenodd; clip-rule:evenodd"
viewBox="0 0 1600.98 1601.2"
 xmlns:xlink="http://www.w3.org/1999/xlink"
 xmlns:xodm="http://www.corel.com/coreldraw/odm/2003">
 <defs>
  <style type="text/css">
   <![CDATA[
    .fil0 {fill:black}
   ]]>
  </style>
 </defs>
 <g id="Слой_x0020_1">
  <metadata id="CorelCorpID_0Corel-Layer"/>
  <path class="fil0" d="M185.43 924.46c12.11,-4.09 831.8,-1.26 921.44,-1.26 101.41,0 208.8,3.41 309.47,-0.23 0.46,40.99 0.04,82.18 0.05,123.2 0.01,41.1 4,77.18 -10.14,113.5 -20.78,53.36 -68.55,102.56 -123.09,123.3 -37.11,14.12 -70.76,10.51 -113.68,10.51l-615.99 -0.02c-41.06,-0.06 -82.14,-0.06 -123.2,-0.01 -41.31,0.06 -77.21,3.81 -112.39,-11.71 -55.42,-24.45 -100.03,-66.65 -122.85,-123.59 -14.14,-35.28 -10.55,-70.69 -10.55,-111.98 0,-22.13 -2.95,-108.37 0.92,-121.71zm-182.48 -134.49c-3.66,20.3 -2.87,40.27 -2.89,62.39 -0.01,16.2 1.58,10.91 2.91,19.79 -2.03,20.73 19.23,40.24 37.12,47.23 14.22,5.56 19.57,0.65 21.61,7.63 -0.23,59.87 -0.34,119.89 -0.03,179.75 0.49,94.66 54.58,183.16 123.14,237.35 17.14,13.55 32.87,25.01 54.49,36.44 24.26,12.82 58.73,23.76 64.21,27.14 -1.68,23.68 -16.72,51.45 -29.47,61.87 -19.32,15.79 -44.01,1.39 -68.78,24.18 -52.81,48.59 -4.55,147.61 112.24,89.94 52.27,-25.81 85.82,-75.16 102.63,-129.46 3.68,-11.89 6.2,-26.76 9.44,-37.11 4.75,-1.42 729.08,-3.34 742.63,-0.02 9.06,47.28 26.58,90.48 57.68,126.12 22.64,25.94 73.32,60.65 129.51,57.43 56.79,-3.26 76.49,-75.07 37.26,-107.03 -26.11,-21.27 -49.95,-9.04 -69.06,-23.89 -16.7,-12.98 -24.25,-37.72 -30.6,-62.47 12.7,-6 38.11,-10.48 65.19,-25 58.19,-31.19 105.73,-73.66 138.93,-133.66 44.66,-80.7 38.57,-144.13 38.14,-234.71 -0.1,-21.09 -2.67,-72.33 0.71,-90.03 60.88,-9.17 60.86,-45.12 60.98,-91.74 0.12,-46.13 1.28,-84.05 -61.39,-93.4 -2.75,-36.83 -0.07,-80.9 -0.46,-118.66l0.16 -361.52c0.06,-37.19 -4.91,-72.1 -16.42,-102.93 -11.13,-29.82 -26.7,-57.34 -45.31,-75.85 -34.54,-34.36 -58.58,-54.31 -112.04,-69.71 -14.15,-4.08 -41.44,-5.57 -51.25,-10.03l-41.48 0c-7.51,3.54 -31.84,5.13 -43.04,7.85 -73.72,17.95 -139.87,71.89 -164.02,144.88 -19.55,59.08 4.32,30.86 -38.08,52.75 -59.9,30.93 -106.12,92.65 -103.67,163.29l368.44 0.35c4.07,-38.85 -17.87,-83.33 -34.13,-106.54 -19.81,-28.27 -46.57,-47.07 -78.42,-62.36 9.41,-29.87 24.51,-54.39 49.24,-65.87 26.84,-12.46 71.42,-14.25 102.67,-8.1 70.91,13.94 84.68,85.61 84.63,148.42 -0.14,154.6 1.71,310.04 -0.06,464.52l-1280.91 -0.02c-20.69,-0.06 -72.81,-2.24 -89.04,1.93 -19.85,5.1 -45.97,26.3 -43.44,48.87z"/>
  <path class="fil0" d="M1254.9 668.5c0.63,4.2 14.44,38.62 32.43,43.77 22.51,6.44 41.62,-12.16 38.98,-33.28 -0.85,-6.81 -8.53,-20.58 -11.39,-26.73 -4.64,-9.95 -8.88,-15.13 -20.59,-17.94 -24.36,-5.85 -42.95,10.75 -39.42,34.17z"/>
  <path class="fil0" d="M961.31 672.54c10.87,-35.38 -47.57,-68.6 -69.42,1.1 -7.08,22.6 11.86,43.68 34.93,39.27 17.92,-3.42 32.1,-32.61 34.48,-40.38z"/>
  <path class="fil0" d="M1251.68 594.11c34.57,-2.03 27,2.97 40.7,-18.74 15.5,-24.57 -12.65,-54.76 -15.16,-60.91 -11.07,0.39 -26.35,-0.96 -31.45,3.98 -14.73,14.25 -16.81,36.58 -8.68,54.13 3.8,8.2 11.14,12.97 14.59,21.54z"/>
  <path class="fil0" d="M946.51 512.8c-12.52,16.68 -25.98,12.27 -25.64,46.63 0.05,5.64 6.16,24.26 9.01,27.55 3.94,4.55 21.05,9.34 26.89,7.85 2.67,-0.68 18.14,-13.43 20.33,-15.76 5.2,-5.56 7.36,-19.38 7.29,-29.8 -0.04,-5.95 -5.78,-24.62 -9.09,-27.88 -5.47,-5.37 -20.17,-8.21 -28.78,-8.58z"/>
  <path class="fil0" d="M1077.75 547.32c0,39.8 14.04,46.29 43.81,46.41 12.69,-19.6 17.56,-5.24 17.57,-44.39 0,-9.86 -9.58,-28.3 -14.75,-33.37 -5.75,-0.61 -11.91,-1.23 -17.67,-1.3 -10.19,-0.14 -9.7,0.54 -14.88,5.55 -8.14,7.87 -14.09,11.46 -14.09,27.11z"/>
  <path class="fil0" d="M1221.58 400.98c-40.88,16.6 -10.76,86.85 28.55,71.52 42.38,-16.54 5.55,-85.36 -28.55,-71.52z"/>
  <path class="fil0" d="M978.88 400.86c-17.14,4.57 -30.2,29.99 -31,39.87 -2.79,34.32 41.39,45.84 57.43,19.24 25.74,-42.68 -4.42,-64.98 -26.43,-59.11z"/>
  <path class="fil0" d="M1137.74 686.68c6.62,-19.83 -0.49,-42.68 -15.04,-50.05 -19.95,-10.1 -39.31,1.51 -43.63,18.3 -14.31,55.58 45.65,70.81 58.67,31.75z"/>
  <path class="fil0" d="M1104.16 400.79c-21.98,2.23 -27.85,17.65 -26.3,41.62 1.28,19.69 14.65,34.54 36.91,30.29 36.13,-6.9 34.11,-76.45 -10.61,-71.91z"/>
 </g>
</svg>
